# Alias OBJ Model File
# Exported from SketchUp, (c) 2000-2012 Trimble Navigation Limited
# File units = millimeters

mtllib claw.mtl

g Mesh1 Model

usemtl FrontColor
v 0 0 -0
vt 0 0
vn 0 -1 -0
v 0 0 -19
vt 0 0.748031
v 89 0 -19
vt -3.50394 0.748031
v 89 0 -0
vt -3.50394 0
f 1/1/1 2/2/1 3/3/1 4/4/1 

vn -1 0 -0
v 0 66.5 -42
vt -1.65354 2.61811
v 0 66.5 -59
vt -2.32283 2.61811
vt -0.748031 0
f 1/1/2 5/5/2 6/6/2 2/7/2 

vt 3.50394 0
vn 0 0.533993 0.845489
v 89 66.5 -42
vt 3.50394 3.09656
vt 0 3.09656
f 4/8/3 7/9/3 5/10/3 1/1/3 

vt 0.748031 0
vn 1 0 -0
v 89 66.5 -59
vt 2.32283 2.61811
vt 1.65354 2.61811
f 3/11/4 8/12/4 7/13/4 4/1/4 

vt 0 0.385568
vn 0 -0.515443 -0.856924
vt 0 3.44081
vt -3.50394 3.44081
vt -3.50394 0.385568
f 2/14/5 6/15/5 8/16/5 3/17/5 

v 89 133 -19
vt -3.50394 4.10147
vn 0 0.515443 -0.856924
vt -3.50394 1.04623
vt 0 1.04623
v 0 133 -19
vt 0 4.10147
f 9/18/6 8/19/6 6/20/6 10/21/6 

v 89 133 -0
vt 0 5.23622
vt 0.748031 5.23622
f 11/22/4 7/13/4 8/12/4 9/23/4 

v 0 133 -0
vt 0 4.42717
vn 0 -0.533993 0.845489
vt 0 1.3306
vt 3.50394 1.3306
vt 3.50394 4.42717
f 12/24/7 5/25/7 7/26/7 11/27/7 

vt -0.748031 5.23622
f 10/28/2 6/6/2 5/5/2 12/22/2 

vt 3.50394 1.65354
vn 0 1 -0
vt 3.50394 2.32283
vt 0 2.32283
vt 0 1.65354
f 7/29/8 8/30/8 6/31/8 5/32/8 

vt 3.50394 0.748031
f 10/2/8 12/1/8 11/8/8 9/33/8 

